<svg xmlns="http://www.w3.org/2000/svg" viewBox="0 0 800 520" width="800" height="520">
<defs><linearGradient id="sky" x1="0" y1="0" x2="0" y2="1">
<stop offset="0" stop-color="#0E1D2E"/><stop offset="1" stop-color="#0B1420"/></linearGradient>
<pattern id="g" width="40" height="40" patternUnits="userSpaceOnUse">
<path d="M40 0H0V40" fill="none" stroke="#1E3350" stroke-width="0.6" opacity="0.5"/></pattern></defs>
<rect width="800" height="520" fill="url(#sky)"/><rect width="800" height="520" fill="url(#g)"/><path d="M0 360 L800 360 L800 520 L0 520 Z" fill="#0A1420" stroke="#1E3350" stroke-width="1.5"/><rect x="40" y="415" width="70" height="5" rx="2" fill="#6B87A8" opacity="0.4"/><rect x="170" y="415" width="70" height="5" rx="2" fill="#6B87A8" opacity="0.4"/><rect x="300" y="415" width="70" height="5" rx="2" fill="#6B87A8" opacity="0.4"/><rect x="430" y="415" width="70" height="5" rx="2" fill="#6B87A8" opacity="0.4"/><rect x="560" y="415" width="70" height="5" rx="2" fill="#6B87A8" opacity="0.4"/><rect x="690" y="415" width="70" height="5" rx="2" fill="#6B87A8" opacity="0.4"/><rect x="83" y="110" width="14" height="250" fill="#16283F" stroke="#1E3350" stroke-width="2"/><rect x="64" y="360" width="52" height="12" rx="3" fill="#16283F" stroke="#1E3350" stroke-width="2"/><rect x="703" y="110" width="14" height="250" fill="#16283F" stroke="#1E3350" stroke-width="2"/><rect x="684" y="360" width="52" height="12" rx="3" fill="#16283F" stroke="#1E3350" stroke-width="2"/><rect x="90" y="110" width="620" height="14" fill="#16283F" stroke="#1E3350" stroke-width="2"/><rect x="300" y="124" width="200" height="74" rx="10" fill="#16283F" stroke="#1E3350" stroke-width="2.5"/><rect x="308" y="132" width="184" height="58" rx="6" fill="none" stroke="#1E3350" stroke-width="1" opacity="0.6"/><circle cx="366.6666666666667" cy="161.0" r="24.666666666666668" fill="#0C1826" stroke="#41D9E8" stroke-width="2"/><circle cx="366.6666666666667" cy="161.0" r="11.100000000000001" fill="#41D9E8" opacity="0.35"/><circle cx="433.33333333333337" cy="161.0" r="24.666666666666668" fill="#0C1826" stroke="#41D9E8" stroke-width="2"/><circle cx="433.33333333333337" cy="161.0" r="11.100000000000001" fill="#41D9E8" opacity="0.35"/><rect x="478" y="130" width="8" height="4" rx="2" fill="#F5720A"/><path d="M400 198 L210 408 L590 408 Z" fill="#41D9E8" opacity="0.3"/><path d="M400 198 L170 408 L630 408 Z" fill="#41D9E8" opacity="0.21"/><text x="28" y="480" font-family="'JetBrains Mono',monospace" font-size="15" letter-spacing="3" fill="#F5720A">KORIDOR-A</text>
<text x="28" y="500" font-family="'JetBrains Mono',monospace" font-size="11" letter-spacing="2.5" fill="#6B87A8">МОНТАЖ НА ОБЪЕКТЕ</text>
<rect x="26" y="26" width="34" height="2" fill="#F5720A"/><rect x="26" y="26" width="2" height="34" fill="#F5720A"/>
<rect x="740" y="26" width="34" height="2" fill="#41D9E8"/><rect x="772" y="26" width="2" height="34" fill="#41D9E8"/></svg>