<svg xmlns="http://www.w3.org/2000/svg" viewBox="0 0 800 520" width="800" height="520">
<defs><linearGradient id="sky" x1="0" y1="0" x2="0" y2="1">
<stop offset="0" stop-color="#0E1D2E"/><stop offset="1" stop-color="#0B1420"/></linearGradient>
<pattern id="g" width="40" height="40" patternUnits="userSpaceOnUse">
<path d="M40 0H0V40" fill="none" stroke="#1E3350" stroke-width="0.6" opacity="0.5"/></pattern></defs>
<rect width="800" height="520" fill="url(#sky)"/><rect width="800" height="520" fill="url(#g)"/><path d="M0 340 L800 340 L800 520 L0 520 Z" fill="#0A1420" stroke="#1E3350" stroke-width="1.5"/><rect x="40" y="395" width="70" height="5" rx="2" fill="#6B87A8" opacity="0.4"/><rect x="170" y="395" width="70" height="5" rx="2" fill="#6B87A8" opacity="0.4"/><rect x="300" y="395" width="70" height="5" rx="2" fill="#6B87A8" opacity="0.4"/><rect x="430" y="395" width="70" height="5" rx="2" fill="#6B87A8" opacity="0.4"/><rect x="560" y="395" width="70" height="5" rx="2" fill="#6B87A8" opacity="0.4"/><rect x="690" y="395" width="70" height="5" rx="2" fill="#6B87A8" opacity="0.4"/><rect x="88" y="172" width="170" height="80" rx="10" fill="#16283F" stroke="#1E3350" stroke-width="2.5"/><rect x="96" y="180" width="154" height="64" rx="6" fill="none" stroke="#1E3350" stroke-width="1" opacity="0.6"/><circle cx="173.0" cy="212.0" r="26" fill="#0C1826" stroke="#41D9E8" stroke-width="2"/><circle cx="173.0" cy="212.0" r="11.700000000000001" fill="#41D9E8" opacity="0.35"/><rect x="236" y="178" width="8" height="4" rx="2" fill="#F5720A"/><path d="M173 252 L121 340 M173 252 L225 340 M173 252 L173 340" stroke="#1E3350" stroke-width="6" stroke-linecap="round"/><rect x="93" y="340" width="160" height="9" rx="4" fill="#16283F" stroke="#1E3350" stroke-width="2"/><path d="M420 400 L460 210" stroke="#F5720A" stroke-width="11" stroke-linecap="round"/><rect x="404" y="386" width="22" height="70" rx="5" fill="#16283F" stroke="#1E3350" stroke-width="2"/><path d="M173 212 L-17 412 L363 412 Z" fill="#41D9E8" opacity="0.3"/><path d="M173 212 L-57 412 L403 412 Z" fill="#41D9E8" opacity="0.21"/><text x="28" y="480" font-family="monospace" font-size="15" letter-spacing="3" fill="#F5720A">RAILGUARD-M</text>
<text x="28" y="500" font-family="monospace" font-size="11" letter-spacing="2.5" fill="#6B87A8">УСТАНОВКА НА ОБЪЕКТЕ</text>
<rect x="26" y="26" width="34" height="2" fill="#F5720A"/><rect x="26" y="26" width="2" height="34" fill="#F5720A"/>
<rect x="740" y="26" width="34" height="2" fill="#41D9E8"/><rect x="772" y="26" width="2" height="34" fill="#41D9E8"/></svg>