<svg xmlns="http://www.w3.org/2000/svg" viewBox="0 0 800 520" width="800" height="520">
<defs>
<linearGradient id="sky" x1="0" y1="0" x2="0" y2="1">
  <stop offset="0" stop-color="#0E1D2E"/><stop offset="1" stop-color="#0B1420"/>
</linearGradient>
<linearGradient id="body" x1="0" y1="0" x2="1" y2="1">
  <stop offset="0" stop-color="#25405F"/><stop offset="1" stop-color="#16283F"/>
</linearGradient>
<pattern id="grid" width="40" height="40" patternUnits="userSpaceOnUse">
  <path d="M40 0H0V40" fill="none" stroke="#1E3350" stroke-width="0.6" opacity="0.5"/>
</pattern>
</defs>
<rect width="800" height="520" fill="url(#sky)"/>
<rect width="800" height="520" fill="url(#grid)"/><path d="M0 330 L800 330 L800 520 L0 520 Z" fill="#0A1420" stroke="#1E3350" stroke-width="1.5"/><rect x="40" y="385" width="70" height="5" rx="2" fill="#6B87A8" opacity="0.4"/><rect x="170" y="385" width="70" height="5" rx="2" fill="#6B87A8" opacity="0.4"/><rect x="300" y="385" width="70" height="5" rx="2" fill="#6B87A8" opacity="0.4"/><rect x="430" y="385" width="70" height="5" rx="2" fill="#6B87A8" opacity="0.4"/><rect x="560" y="385" width="70" height="5" rx="2" fill="#6B87A8" opacity="0.4"/><rect x="690" y="385" width="70" height="5" rx="2" fill="#6B87A8" opacity="0.4"/><rect x="113" y="100" width="14" height="230" fill="#16283F" stroke="#1E3350" stroke-width="2"/><rect x="120" y="100" width="260" height="12" fill="#16283F" stroke="#1E3350" stroke-width="2"/><rect x="94" y="330" width="52" height="12" rx="3" fill="#16283F" stroke="#1E3350" stroke-width="2"/><rect x="300" y="96" width="150" height="66" rx="10" fill="#16283F" stroke="#1E3350" stroke-width="2.5"/><rect x="308" y="104" width="134" height="50" rx="6" fill="none" stroke="#1E3350" stroke-width="1" opacity="0.6"/><circle cx="350.0" cy="129.0" r="22.0" fill="#0C1826" stroke="#41D9E8" stroke-width="2"/><circle cx="350.0" cy="129.0" r="11.0" fill="#41D9E8" opacity="0.35"/><circle cx="400.0" cy="129.0" r="22.0" fill="#0C1826" stroke="#41D9E8" stroke-width="2"/><circle cx="400.0" cy="129.0" r="11.0" fill="#41D9E8" opacity="0.35"/><rect x="428" y="102" width="8" height="4" rx="2" fill="#F5720A"/><rect x="60" y="380" width="680" height="6" fill="#E8EFF8" opacity="0.5"/><text x="62" y="405" font-family="monospace" font-size="11" fill="#6B87A8" letter-spacing="2">STOP LINE</text><path d="M375 162 L185 372 L565 372 Z" fill="#41D9E8" opacity="0.3"/><path d="M375 162 L145 372 L605 372 Z" fill="#41D9E8" opacity="0.21999999999999997"/><text x="28" y="480" font-family="'JetBrains Mono',monospace" font-size="15" letter-spacing="3" fill="#F5720A">TRC</text>
<text x="28" y="500" font-family="'JetBrains Mono',monospace" font-size="11" letter-spacing="2.5" fill="#6B87A8">УСТАНОВКА НАД СТОП-ЛИНИЕЙ</text>
<rect x="26" y="26" width="34" height="2" fill="#F5720A"/>
<rect x="26" y="26" width="2" height="34" fill="#F5720A"/>
<rect x="740" y="26" width="34" height="2" fill="#41D9E8"/>
<rect x="772" y="26" width="2" height="34" fill="#41D9E8"/>
</svg>