<svg xmlns="http://www.w3.org/2000/svg" viewBox="0 0 800 520" width="800" height="520">
<defs><linearGradient id="sky" x1="0" y1="0" x2="0" y2="1">
<stop offset="0" stop-color="#0E1D2E"/><stop offset="1" stop-color="#0B1420"/></linearGradient>
<pattern id="g" width="40" height="40" patternUnits="userSpaceOnUse">
<path d="M40 0H0V40" fill="none" stroke="#1E3350" stroke-width="0.6" opacity="0.5"/></pattern></defs>
<rect width="800" height="520" fill="url(#sky)"/><rect width="800" height="520" fill="url(#g)"/><path d="M0 340 L800 340 L800 520 L0 520 Z" fill="#0A1420" stroke="#1E3350" stroke-width="1.5"/><rect x="40" y="395" width="70" height="5" rx="2" fill="#6B87A8" opacity="0.4"/><rect x="170" y="395" width="70" height="5" rx="2" fill="#6B87A8" opacity="0.4"/><rect x="300" y="395" width="70" height="5" rx="2" fill="#6B87A8" opacity="0.4"/><rect x="430" y="395" width="70" height="5" rx="2" fill="#6B87A8" opacity="0.4"/><rect x="560" y="395" width="70" height="5" rx="2" fill="#6B87A8" opacity="0.4"/><rect x="690" y="395" width="70" height="5" rx="2" fill="#6B87A8" opacity="0.4"/><rect x="653" y="110" width="14" height="230" fill="#16283F" stroke="#1E3350" stroke-width="2"/><rect x="660" y="110" width="-240" height="12" fill="#16283F" stroke="#1E3350" stroke-width="2"/><rect x="634" y="340" width="52" height="12" rx="3" fill="#16283F" stroke="#1E3350" stroke-width="2"/><rect x="400.0" y="117.0" width="180" height="66" rx="33.0" fill="#16283F" stroke="#1E3350" stroke-width="2.5"/><circle cx="550.3" cy="150" r="19.8" fill="#0C1826" stroke="#41D9E8" stroke-width="2"/><circle cx="550.3" cy="150" r="8.58" fill="#41D9E8" opacity="0.4"/><rect x="120" y="180" width="46" height="132" rx="10" fill="#16283F" stroke="#1E3350" stroke-width="2.5"/><circle cx="143" cy="208" r="13" fill="#E5484D" opacity="0.9"/><circle cx="143" cy="248" r="13" fill="#F5720A" opacity="0.18"/><circle cx="143" cy="288" r="13" fill="#3DD68C" opacity="0.18"/><path d="M490 183 L300 383 L680 383 Z" fill="#41D9E8" opacity="0.3"/><path d="M490 183 L260 383 L720 383 Z" fill="#41D9E8" opacity="0.21"/><text x="28" y="480" font-family="monospace" font-size="15" letter-spacing="3" fill="#F5720A">TRC-PHASE</text>
<text x="28" y="500" font-family="monospace" font-size="11" letter-spacing="2.5" fill="#6B87A8">УСТАНОВКА НА ОБЪЕКТЕ</text>
<rect x="26" y="26" width="34" height="2" fill="#F5720A"/><rect x="26" y="26" width="2" height="34" fill="#F5720A"/>
<rect x="740" y="26" width="34" height="2" fill="#41D9E8"/><rect x="772" y="26" width="2" height="34" fill="#41D9E8"/></svg>